<?xml version="1.0" encoding="UTF-8"?>
<svg version="1.1" xmlns="http://www.w3.org/2000/svg" width="840" height="701">
<path d="M0 0 C1.35401413 -0.00101212 1.35401413 -0.00101212 2.73538208 -0.00204468 C35.09995047 0.03615182 66.66481059 4.46440157 97.5625 14.25 C98.73063232 14.60819824 98.73063232 14.60819824 99.92236328 14.97363281 C121.64788557 21.69830757 143.57447829 31.69898686 162.5625 44.25 C163.76891959 45.02179028 164.97597332 45.79259002 166.18359375 46.5625 C179.81814726 55.3550253 192.69317799 65.18796644 204.5625 76.25 C205.91160743 77.44324464 207.26560211 78.63099207 208.625 79.8125 C209.264375 80.37195313 209.90375 80.93140625 210.5625 81.5078125 C211.97418042 82.73751849 213.39139135 83.96088946 214.8125 85.1796875 C219.19717371 88.98665082 223.14354842 92.89351144 226.890625 97.328125 C228.49691634 99.17460944 230.17567614 100.86533023 231.9375 102.5625 C236.54777398 107.13215483 240.57224935 112.13910636 244.5625 117.25 C245.3992627 118.32072754 245.3992627 118.32072754 246.25292969 119.41308594 C255.18494175 130.91477648 263.33044595 142.61075429 270.5625 155.25 C271.0481543 156.08724609 271.53380859 156.92449219 272.03417969 157.78710938 C312.16965462 227.33464398 320.93903859 313.41184677 300.9296875 390.77734375 C287.54618574 439.64835636 262.73690936 482.05552655 228.5625 519.25 C228.05638184 519.80655273 227.55026367 520.36310547 227.02880859 520.93652344 C215.44724256 533.67176911 215.44724256 533.67176911 209.484375 538.63671875 C207.29200592 540.47706108 205.21975617 542.42434619 203.125 544.375 C198.61212916 548.44844138 193.88820473 552.18428745 189.0625 555.875 C188.03104858 556.66414795 188.03104858 556.66414795 186.97875977 557.46923828 C144.88724841 589.35148801 96.83949882 609.03970363 44.5625 616.25 C43.71671387 616.36714355 42.87092773 616.48428711 41.99951172 616.60498047 C12.74587245 620.39764069 -18.32033317 619.66565242 -47.4375 615.25 C-48.42717773 615.10014648 -49.41685547 614.95029297 -50.43652344 614.79589844 C-113.53411559 604.89287748 -171.52321505 574.35247138 -216.04638672 528.67382812 C-218.77940423 525.87653817 -221.54300596 523.11176865 -224.359375 520.3984375 C-228.99638869 515.90013789 -233.12151849 511.12560514 -237.16015625 506.0859375 C-238.62555361 504.26110305 -240.11115614 502.45221759 -241.62109375 500.6640625 C-256.32177292 483.21191932 -268.60512814 463.22596892 -278.32495117 442.60400391 C-279.21300132 440.72500906 -280.11795554 438.85400635 -281.02856445 436.98583984 C-285.35903104 428.01933 -288.90151569 418.95879625 -292 409.5 C-292.23461945 408.78801453 -292.46923889 408.07602905 -292.71096802 407.34246826 C-317.59655813 331.38679716 -312.97970974 243.69837118 -276.85107422 171.98486328 C-263.78901339 146.71349793 -247.43954517 124.17676568 -228.78173828 102.79394531 C-227.57506767 101.40800543 -226.37865432 100.0131508 -225.18359375 98.6171875 C-221.54851271 94.4201272 -217.79032018 90.69060422 -213.546875 87.11328125 C-211.17432397 85.01752784 -209.00913644 82.77918977 -206.8125 80.5 C-201.33725965 74.96606641 -195.36218366 70.28590567 -189.17822266 65.58496094 C-187.55484339 64.3399907 -185.95415813 63.06558254 -184.35546875 61.7890625 C-132.01519602 20.2662274 -66.36391315 0.04479073 0 0 Z " fill="#363636" transform="translate(418.4375,41.75)"/>
<path d="M0 0 C1.19882812 0.99966797 1.19882812 0.99966797 2.421875 2.01953125 C16.53436523 14.18169286 26.19594339 28.35771339 32 46 C32.49092217 47.25570375 32.98323396 48.51086468 33.4765625 49.765625 C35.09836315 54.05984257 36.12118099 58.38920819 37.0625 62.875 C37.30323242 63.98294922 37.30323242 63.98294922 37.54882812 65.11328125 C40.83686569 80.35181681 41 91.32509005 41 108 C-15.76 108 -72.52 108 -131 108 C-128.33099804 133.35551863 -125.16437758 154.89037874 -104.6875 171.8125 C-87.15224787 184.44997481 -66.66148626 187.39421946 -45.55664062 184.68652344 C-30.46120704 182.10005782 -18.15848613 175.30056446 -8 164 C-3.62770368 157.76354633 -1.8723197 152.4892788 0 145 C12.21 145 24.42 145 37 145 C34.32085942 166.43312466 24.79786239 183.20272453 8.38671875 197.234375 C-17.42328379 216.96468806 -48.97566006 222.2329088 -80.74609375 218.22631836 C-101.54069589 215.07249959 -119.26787983 207.05299405 -135 193 C-135.60972656 192.484375 -136.21945313 191.96875 -136.84765625 191.4375 C-143.46740135 185.42808601 -148.18172567 177.45602977 -153 170 C-153.60328125 169.07058594 -154.2065625 168.14117187 -154.828125 167.18359375 C-163.28774404 152.95807648 -166.08359498 136.05516989 -168.61450195 119.94506836 C-168.92465595 117.9300262 -168.92465595 117.9300262 -170 116 C-170.13574034 113.53495551 -170.21210563 111.09956887 -170.23828125 108.6328125 C-170.24802979 107.89031754 -170.25777832 107.14782257 -170.26782227 106.38282776 C-170.43289018 90.5279514 -170.47117595 75.34892428 -166 60 C-165.66097656 58.72640625 -165.32195312 57.4528125 -164.97265625 56.140625 C-160.07811718 39.62808751 -151.28845779 24.90109461 -140 12 C-139.03707031 10.88625 -139.03707031 10.88625 -138.0546875 9.75 C-103.74524089 -27.08438424 -38.64595449 -33.15489261 0 0 Z " fill="#FBFBFB" transform="translate(364,252)"/>
<path d="M0 0 C6.87977476 -0.48577644 13.75509491 -0.81592922 20.64819336 -1.04370117 C22.98613511 -1.13868963 25.32296429 -1.26795968 27.65698242 -1.43334961 C46.47509221 -2.73239844 46.47509221 -2.73239844 52.28741455 1.77313232 C56.28716427 6.19046182 59.04307521 11.15740615 61.67346191 16.47245789 C63.90924553 20.73244657 66.72110986 24.5823109 69.5 28.5 C70.58335142 30.0776296 71.66439043 31.65685186 72.7421875 33.23828125 C73.27811523 34.02154785 73.81404297 34.80481445 74.36621094 35.61181641 C76.01789159 38.02615295 77.66915042 40.44077753 79.3203125 42.85546875 C80.42184704 44.46616496 81.52340934 46.07684217 82.625 47.6875 C83.42949585 48.8638501 83.42949585 48.8638501 84.25024414 50.06396484 C87.80346361 55.25733961 91.36822765 60.44264979 94.9375 65.625 C98.67397176 71.05119251 102.37716845 76.49696473 106 82 C109.44083787 80.85305404 109.81913606 80.1988862 111.75 77.2734375 C112.27013672 76.49669678 112.79027344 75.71995605 113.32617188 74.91967773 C113.87853516 74.07993408 114.43089844 73.24019043 115 72.375 C116.17508728 70.62235798 117.35219615 68.8710698 118.53125 67.12109375 C119.11777344 66.24952637 119.70429687 65.37795898 120.30859375 64.47998047 C122.63058801 61.07541672 125.04577669 57.74749912 127.5 54.4375 C128.16358521 53.54043335 128.16358521 53.54043335 128.84057617 52.62524414 C129.75198068 51.39349692 130.66368687 50.16197287 131.57568359 48.93066406 C139.00088568 38.86578609 146.2597269 28.67985434 153.4375 18.4375 C154.0044458 17.62901611 154.5713916 16.82053223 155.15551758 15.98754883 C155.70103271 15.20661865 156.24654785 14.42568848 156.80859375 13.62109375 C157.28095459 12.9448999 157.75331543 12.26870605 158.23999023 11.57202148 C160.00388736 9.11479928 160.00388736 9.11479928 161.1449585 6.73893738 C164.60209436 0.46052977 164.60209436 0.46052977 168.38713074 -0.78642273 C171.32642145 -1.04255701 174.13854727 -1.01326781 177.0859375 -0.87890625 C178.67131821 -0.85980446 178.67131821 -0.85980446 180.28872681 -0.84031677 C183.65318622 -0.79006963 187.01218149 -0.67719072 190.375 -0.5625 C192.66007815 -0.51734227 194.94524116 -0.47627996 197.23046875 -0.43945312 C202.82216592 -0.34040873 208.41069272 -0.18996695 214 0 C214 0.66 214 1.32 214 2 C213.46890625 2.52722656 212.9378125 3.05445313 212.390625 3.59765625 C209.08847669 6.91599156 206.48892522 10.6498872 203.75 14.4375 C198.58127315 21.52259804 193.33411783 28.53860096 188 35.5 C182.93309962 42.11917022 177.92564099 48.7750381 173 55.5 C167.42264074 63.11475076 161.72631882 70.6315769 155.98950195 78.12670898 C149.67907671 86.38638355 143.50685563 94.74453226 137.37182617 103.13500977 C136 105 136 105 134.26293945 106.98803711 C132.79041943 108.89078631 132.79041943 108.89078631 133.1550293 111.0168457 C134.07097417 113.16657706 135.12818941 114.85250831 136.51953125 116.73046875 C137.04095703 117.44203125 137.56238281 118.15359375 138.09960938 118.88671875 C138.66486328 119.64597656 139.23011719 120.40523438 139.8125 121.1875 C141.00736308 122.81578089 142.20135424 124.44470193 143.39453125 126.07421875 C143.99990723 126.89841309 144.6052832 127.72260742 145.22900391 128.57177734 C147.86337969 132.18378472 150.43341884 135.83966372 153 139.5 C157.1230598 145.36546637 161.29315197 151.19434987 165.5 157 C169.70685924 162.8056656 173.87595272 168.63521719 178 174.5 C184.25432876 183.39076572 190.6211553 192.19833001 197 201 C200.79747118 206.23983413 204.59043869 211.48280004 208.36962891 216.73583984 C209.48467574 218.28434903 210.60162848 219.83148711 211.72021484 221.37744141 C213.4029968 223.70558284 215.07741487 226.03952614 216.75 228.375 C217.52065796 229.43666382 217.52065796 229.43666382 218.30688477 230.51977539 C218.77795654 231.18098389 219.24902832 231.84219238 219.734375 232.5234375 C220.14913086 233.10013184 220.56388672 233.67682617 220.99121094 234.27099609 C222.0952708 236.16328844 222.50948664 237.87614361 223 240 C216.16911622 240.2799079 209.33971826 240.47192973 202.50439453 240.60424805 C200.18189244 240.65942244 197.85977001 240.73438631 195.53857422 240.82983398 C176.35051743 241.59883669 176.35051743 241.59883669 170.92260742 237.90673828 C168.81645813 235.03749143 167.42807171 232.25469279 166 229 C164.80082962 227.15460455 163.56673636 225.33148655 162.30078125 223.53125 C160.96946915 221.52208111 159.64016087 219.5115835 158.3125 217.5 C156.74682903 215.13796756 155.17840947 212.77776796 153.609375 210.41796875 C153.18322403 209.77687668 152.75707306 209.13578461 152.31800842 208.4752655 C146.57454307 199.84470785 140.77671057 191.25065466 134.98007202 182.65576172 C133.71885582 180.78570537 132.45796203 178.91543153 131.19741821 177.04492188 C129.39415891 174.36923215 127.58987241 171.69423853 125.78515625 169.01953125 C125.21106522 168.16799469 124.63697418 167.31645813 124.04548645 166.43911743 C121.28067003 162.34554512 118.49867425 158.26584621 115.67529297 154.21240234 C115.15865585 153.46923264 114.64201874 152.72606293 114.10972595 151.96037292 C113.14238947 150.57226655 112.17105651 149.18693366 111.19508362 147.80488586 C108 143.22032821 108 143.22032821 108 141 C107.34 141 106.68 141 106 141 C105.76708252 141.6815918 105.53416504 142.36318359 105.29418945 143.06542969 C103.7030084 146.67342748 101.56045912 149.75030149 99.29296875 152.953125 C98.29380499 154.38540258 97.29564903 155.81838357 96.29833984 157.25195312 C95.49731842 158.40111206 95.49731842 158.40111206 94.68011475 159.57348633 C91.70351914 163.87244861 88.78499983 168.21051166 85.86328125 172.546875 C84.94045853 173.91531555 84.94045853 173.91531555 83.99899292 175.31140137 C82.73883032 177.18052585 81.47899568 179.04987148 80.21948242 180.91943359 C78.30533358 183.76063724 76.39005925 186.60107959 74.47460938 189.44140625 C68.8884907 197.72727805 63.31268085 206.01930542 57.77758789 214.33935547 C54.56880208 219.14217758 51.31667351 223.91536367 48.0625 228.6875 C47.39154297 229.67427734 46.72058594 230.66105469 46.02929688 231.67773438 C45.39185547 232.61294922 44.75441406 233.54816406 44.09765625 234.51171875 C43.52539307 235.35178467 42.95312988 236.19185059 42.36352539 237.05737305 C41 239 41 239 40 240 C38.52645652 240.09304018 37.04849409 240.11746265 35.57202148 240.11352539 C34.63112167 240.11344986 33.69022186 240.11337433 32.72080994 240.11329651 C31.69790359 240.10813522 30.67499725 240.10297394 29.62109375 240.09765625 C28.058395 240.09553383 28.058395 240.09553383 26.46412659 240.09336853 C23.12188906 240.0877508 19.77971743 240.0751953 16.4375 240.0625 C14.17773534 240.05748728 11.91796963 240.05292398 9.65820312 240.04882812 C4.10544609 240.03777561 -1.44727225 240.02102024 -7 240 C-4.76756613 235.45719745 -1.98775674 231.41822683 0.875 227.25 C1.45507812 226.40308594 2.03515625 225.55617188 2.6328125 224.68359375 C6.76612206 218.69029489 11.06450433 212.84998937 15.47802734 207.06152344 C19.32334534 201.9856533 22.93492601 196.77563205 26.5 191.5 C30.52263939 185.5472581 34.64363571 179.713194 39 174 C43.91423654 167.55072201 48.52148318 160.93067768 53.06762695 154.21801758 C56.85281572 148.64165873 60.73057798 143.14322958 64.6875 137.6875 C65.22125244 136.94886719 65.75500488 136.21023438 66.30493164 135.44921875 C68.86645482 131.91163367 71.44946303 128.39329419 74.07421875 124.90234375 C74.54835205 124.26272705 75.02248535 123.62311035 75.51098633 122.96411133 C76.39480194 121.77245516 77.2886207 120.58812753 78.1940918 119.4128418 C80.44163173 116.54101704 80.44163173 116.54101704 80.76879883 113.06616211 C79.9051518 110.74509358 78.82086758 109.09979111 77.33203125 107.12109375 C76.77580078 106.37472656 76.21957031 105.62835938 75.64648438 104.859375 C75.04126953 104.06015625 74.43605469 103.2609375 73.8125 102.4375 C72.52717755 100.71757211 71.24202597 98.99751651 69.95703125 97.27734375 C69.29783691 96.39933105 68.63864258 95.52131836 67.95947266 94.61669922 C64.94848337 90.59579426 61.97493951 86.54760564 59 82.5 C57.83486944 80.91779639 56.66950401 79.33576571 55.50390625 77.75390625 C54.92656738 76.97031738 54.34922852 76.18672852 53.75439453 75.37939453 C51.992704 72.99010481 50.22901902 70.60229927 48.46484375 68.21484375 C42.72576518 60.44400126 37.01570381 52.65511304 31.375 44.8125 C27.31031309 39.16135496 23.19266776 33.5568389 19 28 C14.53686281 22.07536891 10.11910704 16.11937661 5.75 10.125 C4.88955078 8.95517578 4.88955078 8.95517578 4.01171875 7.76171875 C3.48707031 7.03855469 2.96242188 6.31539062 2.421875 5.5703125 C1.95362305 4.92852051 1.48537109 4.28672852 1.00292969 3.62548828 C0 2 0 2 0 0 Z " fill="#FBFBFB" transform="translate(422,231)"/>
<path d="M0 0 C13.83519571 10.70940578 24.1832731 25.43553224 27 43 C27 46.3 27 49.6 27 53 C-16.23 53 -59.46 53 -104 53 C-104 35.80417502 -97.84263497 20.45185095 -86.4765625 7.46484375 C-63.44028352 -15.46243075 -26.50534354 -19.38509473 0 0 Z " fill="#363636" transform="translate(338,276)"/>
<path d="M0 0 C0.66 0.33 1.32 0.66 2 1 C-5.26 8.26 -12.52 15.52 -20 23 C-20.66 22.67 -21.32 22.34 -22 22 C-19.16189618 18.09760725 -15.94651451 15.15273502 -12.3046875 12.046875 C-8.00969597 8.23234015 -4.02311348 4.09731024 0 0 Z " fill="#6C6C6C" transform="translate(217,117)"/>
<path d="M0 0 C0.66 0.33 1.32 0.66 2 1 C-2.29 5.29 -6.58 9.58 -11 14 C-11.66 13.67 -12.32 13.34 -13 13 C-8.96476648 8.18876004 -4.95532767 3.86757281 0 0 Z " fill="#595959" transform="translate(260,276)"/>
</svg>
